<?xml version="1.0" encoding="UTF-8"?>
<svg width="256" height="256" viewBox="0 0 256 256" xmlns="http://www.w3.org/2000/svg" role="img" aria-labelledby="guard-leaf-ranger-title">
  <title id="guard-leaf-ranger-title">叶子小巡游</title>
  
  <defs>
    <linearGradient id="guard-leaf-ranger-bg" x1="24" y1="12" x2="222" y2="244" gradientUnits="userSpaceOnUse">
      <stop offset="0" stop-color="#F0FFE0" />
      <stop offset="1" stop-color="#B8E28A" />
    </linearGradient>
    <radialGradient id="guard-leaf-ranger-halo" cx="46%" cy="34%" r="72%">
      <stop offset="0" stop-color="#FBFFF3" stop-opacity="0.95" />
      <stop offset="1" stop-color="#FBFFF3" stop-opacity="0" />
    </radialGradient>
  </defs>
  <rect x="10" y="10" width="236" height="236" rx="68" fill="url(#guard-leaf-ranger-bg)" />
  <rect x="10" y="10" width="236" height="236" rx="68" fill="#ffffff" fill-opacity="0.10" />
  <circle cx="70" cy="54" r="28" fill="#ffffff" fill-opacity="0.26" />
  <circle cx="196" cy="58" r="18" fill="#ffffff" fill-opacity="0.16" />
  <circle cx="208" cy="190" r="22" fill="#3DB77E" fill-opacity="0.10" />
  <circle cx="46" cy="168" r="10" fill="#3DB77E" fill-opacity="0.14" />
  <path d="M32 188 C58 166 100 168 126 186 C150 202 188 206 224 188 L224 232 L32 232 Z" fill="#ffffff" fill-opacity="0.14" />
  <circle cx="128" cy="106" r="74" fill="url(#guard-leaf-ranger-halo)" />
  <ellipse cx="128" cy="210" rx="58" ry="14" fill="#102030" fill-opacity="0.10" />
  
    <g>
      <path d="M 74 214 C 78 174, 98 146, 128 146 C 158 146, 178 174, 182 214 Z" fill="#A1D983" />
      <path d="M 92 156 C 106 148, 150 148, 164 156 L 156 176 C 144 172, 112 172, 100 176 Z" fill="#3DB77E" fill-opacity="0.92" />
      
      <path d="M 84 112 C 88 84, 106 66, 128 66 C 150 66, 168 84, 172 112 Z" fill="#7BC06A" />
      <path d="M 126 70 C 140 54, 154 48, 166 54 C 160 68, 146 74, 132 76 Z" fill="#3DB77E" />
      <circle cx="128" cy="112" r="38" fill="#F5D1B6" />
      <path d="M 96 108 C 96 84, 110 72, 128 72 C 146 72, 160 84, 160 108 L 160 92 C 154 84, 144 80, 128 80 C 112 80, 102 84, 96 92 Z" fill="#6A4F36" />
      
    <circle cx="100" cy="130" r="9" fill="#F7B0B7" fill-opacity="0.26" />
    <circle cx="156" cy="130" r="9" fill="#F7B0B7" fill-opacity="0.26" />
    
    <circle cx="110" cy="112" r="4.6" fill="#31495C" />
    <circle cx="146" cy="112" r="4.6" fill="#31495C" />
    <ellipse cx="128" cy="123" rx="3.6" ry="2.8" fill="#31495C" fill-opacity="0.52" />
    <path d="M 114 132 C 122 140, 134 140, 142 132" fill="none" stroke="#31495C" stroke-width="4" stroke-linecap="round" />
      <path d="M 152 160 C 160 148, 172 144, 182 150 C 176 164, 164 168, 154 166 Z" fill="#3DB77E" fill-opacity="0.78" />
    </g>
</svg>
