<?xml version="1.0" encoding="UTF-8"?>
<svg width="256" height="256" viewBox="0 0 256 256" xmlns="http://www.w3.org/2000/svg" role="img" aria-labelledby="guard-ribbon-elf-title">
  <title id="guard-ribbon-elf-title">丝带小精灵</title>
  
  <defs>
    <linearGradient id="guard-ribbon-elf-bg" x1="24" y1="12" x2="222" y2="244" gradientUnits="userSpaceOnUse">
      <stop offset="0" stop-color="#FFF1F5" />
      <stop offset="1" stop-color="#FFC6D7" />
    </linearGradient>
    <radialGradient id="guard-ribbon-elf-halo" cx="46%" cy="34%" r="72%">
      <stop offset="0" stop-color="#FFF9FB" stop-opacity="0.95" />
      <stop offset="1" stop-color="#FFF9FB" stop-opacity="0" />
    </radialGradient>
  </defs>
  <rect x="10" y="10" width="236" height="236" rx="68" fill="url(#guard-ribbon-elf-bg)" />
  <rect x="10" y="10" width="236" height="236" rx="68" fill="#ffffff" fill-opacity="0.10" />
  <circle cx="70" cy="54" r="28" fill="#ffffff" fill-opacity="0.26" />
  <circle cx="196" cy="58" r="18" fill="#ffffff" fill-opacity="0.16" />
  <circle cx="208" cy="190" r="22" fill="#7BC39F" fill-opacity="0.10" />
  <circle cx="46" cy="168" r="10" fill="#7BC39F" fill-opacity="0.14" />
  <path d="M32 188 C58 166 100 168 126 186 C150 202 188 206 224 188 L224 232 L32 232 Z" fill="#ffffff" fill-opacity="0.14" />
  <circle cx="128" cy="106" r="74" fill="url(#guard-ribbon-elf-halo)" />
  <ellipse cx="128" cy="210" rx="58" ry="14" fill="#102030" fill-opacity="0.10" />
  
    <g>
      <path d="M 74 214 C 78 174, 98 146, 128 146 C 158 146, 178 174, 182 214 Z" fill="#F7B3C8" />
      <path d="M 92 156 C 106 148, 150 148, 164 156 L 156 176 C 144 172, 112 172, 100 176 Z" fill="#7BC39F" fill-opacity="0.92" />
      
      <path d="M 100 74 C 92 60, 88 52, 90 40 C 102 44, 112 54, 116 66 Z" fill="#F59AB4" />
      <path d="M 156 74 C 164 60, 168 52, 166 40 C 154 44, 144 54, 140 66 Z" fill="#F59AB4" />
      <circle cx="128" cy="76" r="12" fill="#7BC39F" />
      <circle cx="128" cy="112" r="38" fill="#F8D8C1" />
      <path d="M 96 108 C 96 84, 110 72, 128 72 C 146 72, 160 84, 160 108 L 160 92 C 154 84, 144 80, 128 80 C 112 80, 102 84, 96 92 Z" fill="#7A4F56" />
      
    <circle cx="100" cy="130" r="9" fill="#F7B0B7" fill-opacity="0.26" />
    <circle cx="156" cy="130" r="9" fill="#F7B0B7" fill-opacity="0.26" />
    
    <circle cx="110" cy="112" r="4.6" fill="#31495C" />
    <circle cx="146" cy="112" r="4.6" fill="#31495C" />
    <ellipse cx="128" cy="123" rx="3.6" ry="2.8" fill="#31495C" fill-opacity="0.52" />
    <path d="M 114 132 C 122 140, 134 140, 142 132" fill="none" stroke="#31495C" stroke-width="4" stroke-linecap="round" />
      <path d="M 152 160 C 162 146, 174 146, 184 160 C 172 168, 164 168, 152 160 Z" fill="#7BC39F" fill-opacity="0.72" />
    </g>
</svg>
