<?xml version="1.0" encoding="UTF-8"?>
<svg width="256" height="256" viewBox="0 0 256 256" xmlns="http://www.w3.org/2000/svg" role="img" aria-labelledby="guard-acorn-elf-title">
  <title id="guard-acorn-elf-title">松果小精灵</title>
  
  <defs>
    <linearGradient id="guard-acorn-elf-bg" x1="24" y1="12" x2="222" y2="244" gradientUnits="userSpaceOnUse">
      <stop offset="0" stop-color="#FFF1E2" />
      <stop offset="1" stop-color="#D9B089" />
    </linearGradient>
    <radialGradient id="guard-acorn-elf-halo" cx="46%" cy="34%" r="72%">
      <stop offset="0" stop-color="#FFF9F1" stop-opacity="0.95" />
      <stop offset="1" stop-color="#FFF9F1" stop-opacity="0" />
    </radialGradient>
  </defs>
  <rect x="10" y="10" width="236" height="236" rx="68" fill="url(#guard-acorn-elf-bg)" />
  <rect x="10" y="10" width="236" height="236" rx="68" fill="#ffffff" fill-opacity="0.10" />
  <circle cx="70" cy="54" r="28" fill="#ffffff" fill-opacity="0.26" />
  <circle cx="196" cy="58" r="18" fill="#ffffff" fill-opacity="0.16" />
  <circle cx="208" cy="190" r="22" fill="#78BC74" fill-opacity="0.10" />
  <circle cx="46" cy="168" r="10" fill="#78BC74" fill-opacity="0.14" />
  <path d="M32 188 C58 166 100 168 126 186 C150 202 188 206 224 188 L224 232 L32 232 Z" fill="#ffffff" fill-opacity="0.14" />
  <circle cx="128" cy="106" r="74" fill="url(#guard-acorn-elf-halo)" />
  <ellipse cx="128" cy="210" rx="58" ry="14" fill="#102030" fill-opacity="0.10" />
  
    <g>
      <path d="M 74 214 C 78 174, 98 146, 128 146 C 158 146, 178 174, 182 214 Z" fill="#CCA07B" />
      <path d="M 92 156 C 106 148, 150 148, 164 156 L 156 176 C 144 172, 112 172, 100 176 Z" fill="#78BC74" fill-opacity="0.92" />
      
      <ellipse cx="128" cy="82" rx="38" ry="26" fill="#A96F49" />
      <path d="M 96 76 C 110 58, 146 58, 160 76" fill="none" stroke="#78BC74" stroke-width="8" stroke-linecap="round" />
      <circle cx="128" cy="112" r="38" fill="#F2CEB4" />
      <path d="M 96 108 C 96 84, 110 72, 128 72 C 146 72, 160 84, 160 108 L 160 92 C 154 84, 144 80, 128 80 C 112 80, 102 84, 96 92 Z" fill="#5A4539" />
      
    <circle cx="100" cy="130" r="9" fill="#F7B0B7" fill-opacity="0.26" />
    <circle cx="156" cy="130" r="9" fill="#F7B0B7" fill-opacity="0.26" />
    
    <circle cx="110" cy="112" r="4.6" fill="#31495C" />
    <circle cx="146" cy="112" r="4.6" fill="#31495C" />
    <ellipse cx="128" cy="123" rx="3.6" ry="2.8" fill="#31495C" fill-opacity="0.52" />
    <path d="M 114 132 C 122 140, 134 140, 142 132" fill="none" stroke="#31495C" stroke-width="4" stroke-linecap="round" />
      <ellipse cx="158" cy="160" rx="12" ry="14" fill="#78BC74" fill-opacity="0.78" />
    </g>
</svg>
