<?xml version="1.0" encoding="UTF-8"?>
<svg width="256" height="256" viewBox="0 0 256 256" xmlns="http://www.w3.org/2000/svg" role="img" aria-labelledby="produce-pear-buddy-title">
  <title id="produce-pear-buddy-title">雪梨青青</title>
  
  <defs>
    <linearGradient id="produce-pear-buddy-bg" x1="24" y1="12" x2="222" y2="244" gradientUnits="userSpaceOnUse">
      <stop offset="0" stop-color="#F2FFD9" />
      <stop offset="1" stop-color="#CBEA7A" />
    </linearGradient>
    <radialGradient id="produce-pear-buddy-halo" cx="46%" cy="34%" r="72%">
      <stop offset="0" stop-color="#FBFFF2" stop-opacity="0.95" />
      <stop offset="1" stop-color="#FBFFF2" stop-opacity="0" />
    </radialGradient>
  </defs>
  <rect x="10" y="10" width="236" height="236" rx="68" fill="url(#produce-pear-buddy-bg)" />
  <rect x="10" y="10" width="236" height="236" rx="68" fill="#ffffff" fill-opacity="0.10" />
  <circle cx="70" cy="54" r="28" fill="#ffffff" fill-opacity="0.26" />
  <circle cx="196" cy="58" r="18" fill="#ffffff" fill-opacity="0.16" />
  <circle cx="208" cy="190" r="22" fill="#6DBF72" fill-opacity="0.10" />
  <circle cx="46" cy="168" r="10" fill="#6DBF72" fill-opacity="0.14" />
  <path d="M32 188 C58 166 100 168 126 186 C150 202 188 206 224 188 L224 232 L32 232 Z" fill="#ffffff" fill-opacity="0.14" />
  <circle cx="128" cy="106" r="74" fill="url(#produce-pear-buddy-halo)" />
  <ellipse cx="128" cy="210" rx="58" ry="14" fill="#102030" fill-opacity="0.10" />
  
    <g>
      
      <path d="M 128 68 C 112 68, 98 82, 98 98 C 98 110, 106 118, 110 124 C 88 136, 76 154, 76 174 C 76 196, 96 212, 128 212 C 160 212, 180 196, 180 174 C 180 154, 168 136, 146 124 C 150 118, 158 110, 158 98 C 158 82, 144 68, 128 68 Z" fill="#A7CA5C" />
      <path d="M 130 54 C 130 42, 136 34, 146 30" fill="none" stroke="#8B6B4C" stroke-width="6" stroke-linecap="round" />
      <path d="M 132 58 C 142 48, 154 46, 164 52 C 160 64, 148 68, 138 66 Z" fill="#71C66C" />
      
    <circle cx="100" cy="148" r="9" fill="#F7A5B2" fill-opacity="0.26" />
    <circle cx="156" cy="148" r="9" fill="#F7A5B2" fill-opacity="0.26" />
    
    <circle cx="110" cy="130" r="4.6" fill="#31495C" />
    <circle cx="146" cy="130" r="4.6" fill="#31495C" />
    <ellipse cx="128" cy="141" rx="3.6" ry="2.8" fill="#31495C" fill-opacity="0.52" />
    <path d="M 114 150 C 122 158, 134 158, 142 150" fill="none" stroke="#31495C" stroke-width="4" stroke-linecap="round" />
    </g>
</svg>
