<?xml version="1.0" encoding="UTF-8"?>
<svg width="256" height="256" viewBox="0 0 256 256" xmlns="http://www.w3.org/2000/svg" role="img" aria-labelledby="animal-cloud-panda-title">
  <title id="animal-cloud-panda-title">云朵熊猫</title>
  
  <defs>
    <linearGradient id="animal-cloud-panda-bg" x1="24" y1="12" x2="222" y2="244" gradientUnits="userSpaceOnUse">
      <stop offset="0" stop-color="#EEF7FF" />
      <stop offset="1" stop-color="#A2D5FF" />
    </linearGradient>
    <radialGradient id="animal-cloud-panda-halo" cx="46%" cy="34%" r="72%">
      <stop offset="0" stop-color="#F9FCFF" stop-opacity="0.95" />
      <stop offset="1" stop-color="#F9FCFF" stop-opacity="0" />
    </radialGradient>
  </defs>
  <rect x="10" y="10" width="236" height="236" rx="68" fill="url(#animal-cloud-panda-bg)" />
  <rect x="10" y="10" width="236" height="236" rx="68" fill="#ffffff" fill-opacity="0.10" />
  <circle cx="70" cy="54" r="28" fill="#ffffff" fill-opacity="0.26" />
  <circle cx="196" cy="58" r="18" fill="#ffffff" fill-opacity="0.16" />
  <circle cx="208" cy="190" r="22" fill="#6D8EFF" fill-opacity="0.10" />
  <circle cx="46" cy="168" r="10" fill="#6D8EFF" fill-opacity="0.14" />
  <path d="M32 188 C58 166 100 168 126 186 C150 202 188 206 224 188 L224 232 L32 232 Z" fill="#ffffff" fill-opacity="0.14" />
  <circle cx="128" cy="106" r="74" fill="url(#animal-cloud-panda-halo)" />
  <ellipse cx="128" cy="210" rx="58" ry="14" fill="#102030" fill-opacity="0.10" />
  
    <g>
      
      
    <path d="M 76 214 C 78 174, 98 148, 128 148 C 158 148, 178 174, 180 214 Z" fill="#B9CFEA" />
    <path d="M 92 160 C 110 150, 146 150, 164 160 L 158 180 C 144 174, 112 174, 98 180 Z" fill="#6D8EFF" fill-opacity="0.95" />
      
    <circle cx="92" cy="72" r="18" fill="#EEF4FB" />
    <circle cx="92" cy="72" r="8" fill="#FFFFFF" />
    <circle cx="164" cy="72" r="18" fill="#EEF4FB" />
    <circle cx="164" cy="72" r="8" fill="#FFFFFF" />
      <circle cx="128" cy="112" r="48" fill="#EEF4FB" />
      
      <ellipse cx="108" cy="112" rx="13" ry="16" fill="#344C60" fill-opacity="0.72" />
      <ellipse cx="148" cy="112" rx="13" ry="16" fill="#344C60" fill-opacity="0.72" />
      <ellipse cx="128" cy="134" rx="26" ry="20" fill="#FFFFFF" />
      
    <circle cx="100" cy="130" r="9" fill="#F7A5B2" fill-opacity="0.26" />
    <circle cx="156" cy="130" r="9" fill="#F7A5B2" fill-opacity="0.26" />
    
    <circle cx="110" cy="112" r="4.6" fill="#31495C" />
    <circle cx="146" cy="112" r="4.6" fill="#31495C" />
    <ellipse cx="128" cy="123" rx="3.6" ry="2.8" fill="#31495C" fill-opacity="0.52" />
    <path d="M 114 132 C 122 140, 134 140, 142 132" fill="none" stroke="#31495C" stroke-width="4" stroke-linecap="round" />
      
    </g>
</svg>
