<?xml version="1.0" encoding="UTF-8"?>
<svg width="256" height="256" viewBox="0 0 256 256" xmlns="http://www.w3.org/2000/svg" role="img" aria-labelledby="animal-plum-owl-title">
  <title id="animal-plum-owl-title">暮暮小鸮</title>
  
  <defs>
    <linearGradient id="animal-plum-owl-bg" x1="24" y1="12" x2="222" y2="244" gradientUnits="userSpaceOnUse">
      <stop offset="0" stop-color="#F2ECFF" />
      <stop offset="1" stop-color="#C7B2FF" />
    </linearGradient>
    <radialGradient id="animal-plum-owl-halo" cx="46%" cy="34%" r="72%">
      <stop offset="0" stop-color="#FBF8FF" stop-opacity="0.95" />
      <stop offset="1" stop-color="#FBF8FF" stop-opacity="0" />
    </radialGradient>
  </defs>
  <rect x="10" y="10" width="236" height="236" rx="68" fill="url(#animal-plum-owl-bg)" />
  <rect x="10" y="10" width="236" height="236" rx="68" fill="#ffffff" fill-opacity="0.10" />
  <circle cx="70" cy="54" r="28" fill="#ffffff" fill-opacity="0.26" />
  <circle cx="196" cy="58" r="18" fill="#ffffff" fill-opacity="0.16" />
  <circle cx="208" cy="190" r="22" fill="#FF93BF" fill-opacity="0.10" />
  <circle cx="46" cy="168" r="10" fill="#FF93BF" fill-opacity="0.14" />
  <path d="M32 188 C58 166 100 168 126 186 C150 202 188 206 224 188 L224 232 L32 232 Z" fill="#ffffff" fill-opacity="0.14" />
  <circle cx="128" cy="106" r="74" fill="url(#animal-plum-owl-halo)" />
  <ellipse cx="128" cy="210" rx="58" ry="14" fill="#102030" fill-opacity="0.10" />
  
    <g>
      
      
      <path d="M 84 214 C 86 170, 102 146, 128 146 C 154 146, 170 170, 172 214 Z" fill="#AB93E9" />
      <ellipse cx="90" cy="176" rx="14" ry="26" fill="#8A78D9" fill-opacity="0.88" />
      <ellipse cx="166" cy="176" rx="14" ry="26" fill="#8A78D9" fill-opacity="0.88" />
      
      <path d="M 94 96 L 100 62 L 118 84 Z" fill="#8A78D9" />
      <path d="M 162 96 L 156 62 L 138 84 Z" fill="#8A78D9" />
      <circle cx="128" cy="112" r="48" fill="#8A78D9" />
      
      <circle cx="108" cy="112" r="16" fill="#FFF3FA" />
      <circle cx="148" cy="112" r="16" fill="#FFF3FA" />
      <path d="M 128 126 L 120 134 L 136 134 Z" fill="#FF93BF" />
      
    <circle cx="100" cy="130" r="9" fill="#F7A5B2" fill-opacity="0.26" />
    <circle cx="156" cy="130" r="9" fill="#F7A5B2" fill-opacity="0.26" />
    
    <circle cx="110" cy="112" r="4.6" fill="#31495C" />
    <circle cx="146" cy="112" r="4.6" fill="#31495C" />
    <ellipse cx="128" cy="123" rx="3.6" ry="2.8" fill="#31495C" fill-opacity="0.52" />
    <path d="M 114 132 C 122 140, 134 140, 142 132" fill="none" stroke="#31495C" stroke-width="4" stroke-linecap="round" />
      
    </g>
</svg>
