<?xml version="1.0" encoding="UTF-8"?>
<svg width="256" height="256" viewBox="0 0 256 256" xmlns="http://www.w3.org/2000/svg" role="img" aria-labelledby="sky-moon-friend-title">
  <title id="sky-moon-friend-title">月亮柔柔</title>
  
  <defs>
    <linearGradient id="sky-moon-friend-bg" x1="24" y1="12" x2="222" y2="244" gradientUnits="userSpaceOnUse">
      <stop offset="0" stop-color="#F2EEFF" />
      <stop offset="1" stop-color="#D6CEFF" />
    </linearGradient>
    <radialGradient id="sky-moon-friend-halo" cx="46%" cy="34%" r="72%">
      <stop offset="0" stop-color="#FBF9FF" stop-opacity="0.95" />
      <stop offset="1" stop-color="#FBF9FF" stop-opacity="0" />
    </radialGradient>
  </defs>
  <rect x="10" y="10" width="236" height="236" rx="68" fill="url(#sky-moon-friend-bg)" />
  <rect x="10" y="10" width="236" height="236" rx="68" fill="#ffffff" fill-opacity="0.10" />
  <circle cx="70" cy="54" r="28" fill="#ffffff" fill-opacity="0.26" />
  <circle cx="196" cy="58" r="18" fill="#ffffff" fill-opacity="0.16" />
  <circle cx="208" cy="190" r="22" fill="#9A92F2" fill-opacity="0.10" />
  <circle cx="46" cy="168" r="10" fill="#9A92F2" fill-opacity="0.14" />
  <path d="M32 188 C58 166 100 168 126 186 C150 202 188 206 224 188 L224 232 L32 232 Z" fill="#ffffff" fill-opacity="0.14" />
  <circle cx="128" cy="106" r="74" fill="url(#sky-moon-friend-halo)" />
  <ellipse cx="128" cy="210" rx="58" ry="14" fill="#102030" fill-opacity="0.10" />
  
    <g>
      
      <circle cx="122" cy="114" r="46" fill="#FFE8A6" />
      <circle cx="144" cy="102" r="38" fill="#FBF9FF" />
      <circle cx="170" cy="82" r="6" fill="#FFF7DE" fill-opacity="0.92" />
      <circle cx="184" cy="98" r="4" fill="#FFF7DE" fill-opacity="0.82" />
      
    <circle cx="84" cy="138" r="9" fill="#F7A5B2" fill-opacity="0.26" />
    <circle cx="140" cy="138" r="9" fill="#F7A5B2" fill-opacity="0.26" />
    
    <circle cx="94" cy="120" r="4.6" fill="#31495C" />
    <circle cx="130" cy="120" r="4.6" fill="#31495C" />
    <ellipse cx="112" cy="131" rx="3.6" ry="2.8" fill="#31495C" fill-opacity="0.52" />
    <path d="M 98 140 C 106 148, 118 148, 126 140" fill="none" stroke="#31495C" stroke-width="4" stroke-linecap="round" />
    </g>
</svg>
