<?xml version="1.0" encoding="UTF-8"?>
<svg width="256" height="256" viewBox="0 0 256 256" xmlns="http://www.w3.org/2000/svg" role="img" aria-labelledby="plant-sprout-sprite-title">
  <title id="plant-sprout-sprite-title">小芽灵灵</title>
  
  <defs>
    <linearGradient id="plant-sprout-sprite-bg" x1="24" y1="12" x2="222" y2="244" gradientUnits="userSpaceOnUse">
      <stop offset="0" stop-color="#F0FFE1" />
      <stop offset="1" stop-color="#BEEB9A" />
    </linearGradient>
    <radialGradient id="plant-sprout-sprite-halo" cx="46%" cy="34%" r="72%">
      <stop offset="0" stop-color="#FBFFF3" stop-opacity="0.95" />
      <stop offset="1" stop-color="#FBFFF3" stop-opacity="0" />
    </radialGradient>
  </defs>
  <rect x="10" y="10" width="236" height="236" rx="68" fill="url(#plant-sprout-sprite-bg)" />
  <rect x="10" y="10" width="236" height="236" rx="68" fill="#ffffff" fill-opacity="0.10" />
  <circle cx="70" cy="54" r="28" fill="#ffffff" fill-opacity="0.26" />
  <circle cx="196" cy="58" r="18" fill="#ffffff" fill-opacity="0.16" />
  <circle cx="208" cy="190" r="22" fill="#F2A65A" fill-opacity="0.10" />
  <circle cx="46" cy="168" r="10" fill="#F2A65A" fill-opacity="0.14" />
  <path d="M32 188 C58 166 100 168 126 186 C150 202 188 206 224 188 L224 232 L32 232 Z" fill="#ffffff" fill-opacity="0.14" />
  <circle cx="128" cy="106" r="74" fill="url(#plant-sprout-sprite-halo)" />
  <ellipse cx="128" cy="210" rx="58" ry="14" fill="#102030" fill-opacity="0.10" />
  
    <g>
      
      <path d="M 120 92 C 108 80, 106 62, 116 52 C 130 56, 136 72, 132 86 Z" fill="#81C770" />
      <path d="M 136 92 C 148 80, 150 62, 140 52 C 126 56, 120 72, 124 86 Z" fill="#81C770" />
      <ellipse cx="128" cy="124" rx="36" ry="42" fill="#FFF8E8" />
      <path d="M 84 210 C 88 182, 104 160, 128 160 C 152 160, 168 182, 172 210 Z" fill="#B4E08B" />
      <path d="M 100 182 C 108 166, 118 160, 128 170 C 138 160, 148 166, 156 182" fill="none" stroke="#F2A65A" stroke-width="8" stroke-linecap="round" />
      
    <circle cx="100" cy="136" r="9" fill="#F7A5B2" fill-opacity="0.26" />
    <circle cx="156" cy="136" r="9" fill="#F7A5B2" fill-opacity="0.26" />
    
    <circle cx="110" cy="118" r="4.6" fill="#31495C" />
    <circle cx="146" cy="118" r="4.6" fill="#31495C" />
    <ellipse cx="128" cy="129" rx="3.6" ry="2.8" fill="#31495C" fill-opacity="0.52" />
    <path d="M 114 138 C 122 146, 134 146, 142 138" fill="none" stroke="#31495C" stroke-width="4" stroke-linecap="round" />
    </g>
</svg>
