<?xml version="1.0" encoding="UTF-8"?>
<svg width="256" height="256" viewBox="0 0 256 256" xmlns="http://www.w3.org/2000/svg" role="img" aria-labelledby="guard-lantern-guardian-title">
  <title id="guard-lantern-guardian-title">灯灯守护者</title>
  
  <defs>
    <linearGradient id="guard-lantern-guardian-bg" x1="24" y1="12" x2="222" y2="244" gradientUnits="userSpaceOnUse">
      <stop offset="0" stop-color="#FFF4D4" />
      <stop offset="1" stop-color="#FFD17D" />
    </linearGradient>
    <radialGradient id="guard-lantern-guardian-halo" cx="46%" cy="34%" r="72%">
      <stop offset="0" stop-color="#FFFBEA" stop-opacity="0.95" />
      <stop offset="1" stop-color="#FFFBEA" stop-opacity="0" />
    </radialGradient>
  </defs>
  <rect x="10" y="10" width="236" height="236" rx="68" fill="url(#guard-lantern-guardian-bg)" />
  <rect x="10" y="10" width="236" height="236" rx="68" fill="#ffffff" fill-opacity="0.10" />
  <circle cx="70" cy="54" r="28" fill="#ffffff" fill-opacity="0.26" />
  <circle cx="196" cy="58" r="18" fill="#ffffff" fill-opacity="0.16" />
  <circle cx="208" cy="190" r="22" fill="#FF8B4A" fill-opacity="0.10" />
  <circle cx="46" cy="168" r="10" fill="#FF8B4A" fill-opacity="0.14" />
  <path d="M32 188 C58 166 100 168 126 186 C150 202 188 206 224 188 L224 232 L32 232 Z" fill="#ffffff" fill-opacity="0.14" />
  <circle cx="128" cy="106" r="74" fill="url(#guard-lantern-guardian-halo)" />
  <ellipse cx="128" cy="210" rx="58" ry="14" fill="#102030" fill-opacity="0.10" />
  
    <g>
      <path d="M 74 214 C 78 174, 98 146, 128 146 C 158 146, 178 174, 182 214 Z" fill="#F4C274" />
      <path d="M 92 156 C 106 148, 150 148, 164 156 L 156 176 C 144 172, 112 172, 100 176 Z" fill="#FF8B4A" fill-opacity="0.92" />
      <path d="M 84 118 C 84 78, 102 54, 128 54 C 154 54, 172 78, 172 118 L 160 118 C 160 86, 148 70, 128 70 C 108 70, 96 86, 96 118 Z" fill="#D99E4B" />
      <circle cx="128" cy="112" r="38" fill="#F7D8C0" />
      <path d="M 96 108 C 96 84, 110 72, 128 72 C 146 72, 160 84, 160 108 L 160 92 C 154 84, 144 80, 128 80 C 112 80, 102 84, 96 92 Z" fill="#6C503F" />
      
    <circle cx="100" cy="130" r="9" fill="#F7B0B7" fill-opacity="0.26" />
    <circle cx="156" cy="130" r="9" fill="#F7B0B7" fill-opacity="0.26" />
    
    <circle cx="110" cy="112" r="4.6" fill="#31495C" />
    <circle cx="146" cy="112" r="4.6" fill="#31495C" />
    <ellipse cx="128" cy="123" rx="3.6" ry="2.8" fill="#31495C" fill-opacity="0.52" />
    <path d="M 114 132 C 122 140, 134 140, 142 132" fill="none" stroke="#31495C" stroke-width="4" stroke-linecap="round" />
      
      <path d="M 164 128 V 150" stroke="#FF8B4A" stroke-width="4" stroke-linecap="round" />
      <rect x="156" y="150" width="16" height="20" rx="5" fill="#FF8B4A" />
    </g>
</svg>
