<?xml version="1.0" encoding="UTF-8"?>
<svg width="256" height="256" viewBox="0 0 256 256" xmlns="http://www.w3.org/2000/svg" role="img" aria-labelledby="produce-carrot-buddy-title">
  <title id="produce-carrot-buddy-title">胡萝卜跳跳</title>
  
  <defs>
    <linearGradient id="produce-carrot-buddy-bg" x1="24" y1="12" x2="222" y2="244" gradientUnits="userSpaceOnUse">
      <stop offset="0" stop-color="#FFF2DE" />
      <stop offset="1" stop-color="#FFC384" />
    </linearGradient>
    <radialGradient id="produce-carrot-buddy-halo" cx="46%" cy="34%" r="72%">
      <stop offset="0" stop-color="#FFF9EE" stop-opacity="0.95" />
      <stop offset="1" stop-color="#FFF9EE" stop-opacity="0" />
    </radialGradient>
  </defs>
  <rect x="10" y="10" width="236" height="236" rx="68" fill="url(#produce-carrot-buddy-bg)" />
  <rect x="10" y="10" width="236" height="236" rx="68" fill="#ffffff" fill-opacity="0.10" />
  <circle cx="70" cy="54" r="28" fill="#ffffff" fill-opacity="0.26" />
  <circle cx="196" cy="58" r="18" fill="#ffffff" fill-opacity="0.16" />
  <circle cx="208" cy="190" r="22" fill="#65BD70" fill-opacity="0.10" />
  <circle cx="46" cy="168" r="10" fill="#65BD70" fill-opacity="0.14" />
  <path d="M32 188 C58 166 100 168 126 186 C150 202 188 206 224 188 L224 232 L32 232 Z" fill="#ffffff" fill-opacity="0.14" />
  <circle cx="128" cy="106" r="74" fill="url(#produce-carrot-buddy-halo)" />
  <ellipse cx="128" cy="210" rx="58" ry="14" fill="#102030" fill-opacity="0.10" />
  
    <g>
      
      <path d="M 128 78 C 156 78, 180 102, 174 126 L 150 202 C 146 214, 110 214, 106 202 L 82 126 C 76 102, 100 78, 128 78 Z" fill="#F28A4D" />
      <path d="M 114 74 C 108 56, 116 44, 126 40" fill="none" stroke="#6FC76B" stroke-width="7" stroke-linecap="round" />
      <path d="M 128 72 C 128 54, 136 42, 146 38" fill="none" stroke="#6FC76B" stroke-width="7" stroke-linecap="round" />
      <path d="M 142 74 C 148 56, 158 48, 170 46" fill="none" stroke="#6FC76B" stroke-width="7" stroke-linecap="round" />
      
    <circle cx="100" cy="144" r="9" fill="#F7A5B2" fill-opacity="0.26" />
    <circle cx="156" cy="144" r="9" fill="#F7A5B2" fill-opacity="0.26" />
    
    <circle cx="110" cy="126" r="4.6" fill="#31495C" />
    <circle cx="146" cy="126" r="4.6" fill="#31495C" />
    <ellipse cx="128" cy="137" rx="3.6" ry="2.8" fill="#31495C" fill-opacity="0.52" />
    <path d="M 114 146 C 122 154, 134 154, 142 146" fill="none" stroke="#31495C" stroke-width="4" stroke-linecap="round" />
    </g>
</svg>
