<?xml version="1.0" encoding="UTF-8"?>
<svg width="256" height="256" viewBox="0 0 256 256" xmlns="http://www.w3.org/2000/svg" role="img" aria-labelledby="produce-corn-buddy-title">
  <title id="produce-corn-buddy-title">玉米闪闪</title>
  
  <defs>
    <linearGradient id="produce-corn-buddy-bg" x1="24" y1="12" x2="222" y2="244" gradientUnits="userSpaceOnUse">
      <stop offset="0" stop-color="#FFF6C9" />
      <stop offset="1" stop-color="#FFE06B" />
    </linearGradient>
    <radialGradient id="produce-corn-buddy-halo" cx="46%" cy="34%" r="72%">
      <stop offset="0" stop-color="#FFFBE8" stop-opacity="0.95" />
      <stop offset="1" stop-color="#FFFBE8" stop-opacity="0" />
    </radialGradient>
  </defs>
  <rect x="10" y="10" width="236" height="236" rx="68" fill="url(#produce-corn-buddy-bg)" />
  <rect x="10" y="10" width="236" height="236" rx="68" fill="#ffffff" fill-opacity="0.10" />
  <circle cx="70" cy="54" r="28" fill="#ffffff" fill-opacity="0.26" />
  <circle cx="196" cy="58" r="18" fill="#ffffff" fill-opacity="0.16" />
  <circle cx="208" cy="190" r="22" fill="#77BE6C" fill-opacity="0.10" />
  <circle cx="46" cy="168" r="10" fill="#77BE6C" fill-opacity="0.14" />
  <path d="M32 188 C58 166 100 168 126 186 C150 202 188 206 224 188 L224 232 L32 232 Z" fill="#ffffff" fill-opacity="0.14" />
  <circle cx="128" cy="106" r="74" fill="url(#produce-corn-buddy-halo)" />
  <ellipse cx="128" cy="210" rx="58" ry="14" fill="#102030" fill-opacity="0.10" />
  
    <g>
      
      <rect x="98" y="72" width="60" height="124" rx="30" fill="#F2C94C" />
      <path d="M 98 96 C 82 110, 76 132, 80 168 C 94 166, 104 154, 110 138 Z" fill="#78C46F" />
      <path d="M 158 96 C 174 110, 180 132, 176 168 C 162 166, 152 154, 146 138 Z" fill="#78C46F" />
      <circle cx="116" cy="100" r="4" fill="#FFF5C8" />
      <circle cx="128" cy="100" r="4" fill="#FFF5C8" />
      <circle cx="140" cy="100" r="4" fill="#FFF5C8" />
      <circle cx="116" cy="116" r="4" fill="#FFF5C8" />
      <circle cx="128" cy="116" r="4" fill="#FFF5C8" />
      <circle cx="140" cy="116" r="4" fill="#FFF5C8" />
      
    <circle cx="100" cy="150" r="9" fill="#F7A5B2" fill-opacity="0.26" />
    <circle cx="156" cy="150" r="9" fill="#F7A5B2" fill-opacity="0.26" />
    
    <circle cx="110" cy="132" r="4.6" fill="#31495C" />
    <circle cx="146" cy="132" r="4.6" fill="#31495C" />
    <ellipse cx="128" cy="143" rx="3.6" ry="2.8" fill="#31495C" fill-opacity="0.52" />
    <path d="M 114 152 C 122 160, 134 160, 142 152" fill="none" stroke="#31495C" stroke-width="4" stroke-linecap="round" />
    </g>
</svg>
