<?xml version="1.0" encoding="UTF-8"?>
<svg width="256" height="256" viewBox="0 0 256 256" xmlns="http://www.w3.org/2000/svg" role="img" aria-labelledby="produce-strawberry-buddy-title">
  <title id="produce-strawberry-buddy-title">草莓泡泡</title>
  
  <defs>
    <linearGradient id="produce-strawberry-buddy-bg" x1="24" y1="12" x2="222" y2="244" gradientUnits="userSpaceOnUse">
      <stop offset="0" stop-color="#FFF1F4" />
      <stop offset="1" stop-color="#FFB2C5" />
    </linearGradient>
    <radialGradient id="produce-strawberry-buddy-halo" cx="46%" cy="34%" r="72%">
      <stop offset="0" stop-color="#FFF9FB" stop-opacity="0.95" />
      <stop offset="1" stop-color="#FFF9FB" stop-opacity="0" />
    </radialGradient>
  </defs>
  <rect x="10" y="10" width="236" height="236" rx="68" fill="url(#produce-strawberry-buddy-bg)" />
  <rect x="10" y="10" width="236" height="236" rx="68" fill="#ffffff" fill-opacity="0.10" />
  <circle cx="70" cy="54" r="28" fill="#ffffff" fill-opacity="0.26" />
  <circle cx="196" cy="58" r="18" fill="#ffffff" fill-opacity="0.16" />
  <circle cx="208" cy="190" r="22" fill="#7CC96F" fill-opacity="0.10" />
  <circle cx="46" cy="168" r="10" fill="#7CC96F" fill-opacity="0.14" />
  <path d="M32 188 C58 166 100 168 126 186 C150 202 188 206 224 188 L224 232 L32 232 Z" fill="#ffffff" fill-opacity="0.14" />
  <circle cx="128" cy="106" r="74" fill="url(#produce-strawberry-buddy-halo)" />
  <ellipse cx="128" cy="210" rx="58" ry="14" fill="#102030" fill-opacity="0.10" />
  
    <g>
      
      <path d="M 128 64 C 156 64, 186 86, 186 118 C 186 164, 154 198, 128 198 C 102 198, 70 164, 70 118 C 70 86, 100 64, 128 64 Z" fill="#EF6E88" />
      <path d="M 104 64 C 112 46, 124 40, 128 52 C 132 40, 144 46, 152 64" fill="#78C86E" stroke="#78C86E" stroke-width="6" stroke-linecap="round" />
      <circle cx="104" cy="112" r="3" fill="#FFF6D8" />
      <circle cx="126" cy="100" r="3" fill="#FFF6D8" />
      <circle cx="148" cy="112" r="3" fill="#FFF6D8" />
      <circle cx="116" cy="136" r="3" fill="#FFF6D8" />
      <circle cx="140" cy="136" r="3" fill="#FFF6D8" />
      <circle cx="128" cy="156" r="3" fill="#FFF6D8" />
      
    <circle cx="100" cy="142" r="9" fill="#F7A5B2" fill-opacity="0.26" />
    <circle cx="156" cy="142" r="9" fill="#F7A5B2" fill-opacity="0.26" />
    
    <circle cx="110" cy="124" r="4.6" fill="#31495C" />
    <circle cx="146" cy="124" r="4.6" fill="#31495C" />
    <ellipse cx="128" cy="135" rx="3.6" ry="2.8" fill="#31495C" fill-opacity="0.52" />
    <path d="M 114 144 C 122 152, 134 152, 142 144" fill="none" stroke="#31495C" stroke-width="4" stroke-linecap="round" />
    </g>
</svg>
