<?xml version="1.0" encoding="UTF-8"?>
<svg width="256" height="256" viewBox="0 0 256 256" xmlns="http://www.w3.org/2000/svg" role="img" aria-labelledby="sky-cloud-friend-title">
  <title id="sky-cloud-friend-title">云朵绵绵</title>
  
  <defs>
    <linearGradient id="sky-cloud-friend-bg" x1="24" y1="12" x2="222" y2="244" gradientUnits="userSpaceOnUse">
      <stop offset="0" stop-color="#F6F7FF" />
      <stop offset="1" stop-color="#D9E6FF" />
    </linearGradient>
    <radialGradient id="sky-cloud-friend-halo" cx="46%" cy="34%" r="72%">
      <stop offset="0" stop-color="#FFFFFF" stop-opacity="0.95" />
      <stop offset="1" stop-color="#FFFFFF" stop-opacity="0" />
    </radialGradient>
  </defs>
  <rect x="10" y="10" width="236" height="236" rx="68" fill="url(#sky-cloud-friend-bg)" />
  <rect x="10" y="10" width="236" height="236" rx="68" fill="#ffffff" fill-opacity="0.10" />
  <circle cx="70" cy="54" r="28" fill="#ffffff" fill-opacity="0.26" />
  <circle cx="196" cy="58" r="18" fill="#ffffff" fill-opacity="0.16" />
  <circle cx="208" cy="190" r="22" fill="#8DA6FF" fill-opacity="0.10" />
  <circle cx="46" cy="168" r="10" fill="#8DA6FF" fill-opacity="0.14" />
  <path d="M32 188 C58 166 100 168 126 186 C150 202 188 206 224 188 L224 232 L32 232 Z" fill="#ffffff" fill-opacity="0.14" />
  <circle cx="128" cy="106" r="74" fill="url(#sky-cloud-friend-halo)" />
  <ellipse cx="128" cy="210" rx="58" ry="14" fill="#102030" fill-opacity="0.10" />
  
    <g>
      
      <circle cx="98" cy="122" r="28" fill="#FFFFFF" />
      <circle cx="128" cy="108" r="34" fill="#FFFFFF" />
      <circle cx="158" cy="122" r="28" fill="#FFFFFF" />
      <rect x="82" y="122" width="92" height="42" rx="21" fill="#FFFFFF" />
      
    <circle cx="100" cy="142" r="9" fill="#F7A5B2" fill-opacity="0.26" />
    <circle cx="156" cy="142" r="9" fill="#F7A5B2" fill-opacity="0.26" />
    
    <circle cx="110" cy="124" r="4.6" fill="#31495C" />
    <circle cx="146" cy="124" r="4.6" fill="#31495C" />
    <ellipse cx="128" cy="135" rx="3.6" ry="2.8" fill="#31495C" fill-opacity="0.52" />
    <path d="M 114 144 C 122 152, 134 152, 142 144" fill="none" stroke="#31495C" stroke-width="4" stroke-linecap="round" />
    </g>
</svg>
