<?xml version="1.0" encoding="UTF-8"?>
<svg width="256" height="256" viewBox="0 0 256 256" xmlns="http://www.w3.org/2000/svg" role="img" aria-labelledby="produce-apple-buddy-title">
  <title id="produce-apple-buddy-title">苹果咚咚</title>
  
  <defs>
    <linearGradient id="produce-apple-buddy-bg" x1="24" y1="12" x2="222" y2="244" gradientUnits="userSpaceOnUse">
      <stop offset="0" stop-color="#FFF0E4" />
      <stop offset="1" stop-color="#FFB09C" />
    </linearGradient>
    <radialGradient id="produce-apple-buddy-halo" cx="46%" cy="34%" r="72%">
      <stop offset="0" stop-color="#FFF8F0" stop-opacity="0.95" />
      <stop offset="1" stop-color="#FFF8F0" stop-opacity="0" />
    </radialGradient>
  </defs>
  <rect x="10" y="10" width="236" height="236" rx="68" fill="url(#produce-apple-buddy-bg)" />
  <rect x="10" y="10" width="236" height="236" rx="68" fill="#ffffff" fill-opacity="0.10" />
  <circle cx="70" cy="54" r="28" fill="#ffffff" fill-opacity="0.26" />
  <circle cx="196" cy="58" r="18" fill="#ffffff" fill-opacity="0.16" />
  <circle cx="208" cy="190" r="22" fill="#69B95A" fill-opacity="0.10" />
  <circle cx="46" cy="168" r="10" fill="#69B95A" fill-opacity="0.14" />
  <path d="M32 188 C58 166 100 168 126 186 C150 202 188 206 224 188 L224 232 L32 232 Z" fill="#ffffff" fill-opacity="0.14" />
  <circle cx="128" cy="106" r="74" fill="url(#produce-apple-buddy-halo)" />
  <ellipse cx="128" cy="210" rx="58" ry="14" fill="#102030" fill-opacity="0.10" />
  
    <g>
      
      <path d="M 92 88 C 90 68, 108 58, 122 70 C 126 74, 128 78, 128 78 C 128 78, 130 74, 134 70 C 148 58, 166 68, 164 88 C 184 94, 194 112, 194 136 C 194 170, 168 198, 128 198 C 88 198, 62 170, 62 136 C 62 112, 72 94, 92 88 Z" fill="#EA6E62" />
      <path d="M 126 56 C 118 46, 116 34, 122 28 C 132 30, 136 40, 134 52 Z" fill="#69B95A" fill-opacity="0.5" />
      <path d="M 132 60 C 142 50, 156 48, 166 54 C 162 66, 150 72, 138 70 Z" fill="#79C86D" />
      
    <circle cx="100" cy="144" r="9" fill="#F7A5B2" fill-opacity="0.26" />
    <circle cx="156" cy="144" r="9" fill="#F7A5B2" fill-opacity="0.26" />
    
    <circle cx="110" cy="126" r="4.6" fill="#31495C" />
    <circle cx="146" cy="126" r="4.6" fill="#31495C" />
    <ellipse cx="128" cy="137" rx="3.6" ry="2.8" fill="#31495C" fill-opacity="0.52" />
    <path d="M 114 146 C 122 154, 134 154, 142 146" fill="none" stroke="#31495C" stroke-width="4" stroke-linecap="round" />
    </g>
</svg>
