<?xml version="1.0" encoding="UTF-8"?>
<svg width="256" height="256" viewBox="0 0 256 256" xmlns="http://www.w3.org/2000/svg" role="img" aria-labelledby="plant-clover-sprite-title">
  <title id="plant-clover-sprite-title">四叶草灵</title>
  
  <defs>
    <linearGradient id="plant-clover-sprite-bg" x1="24" y1="12" x2="222" y2="244" gradientUnits="userSpaceOnUse">
      <stop offset="0" stop-color="#F0FEDA" />
      <stop offset="1" stop-color="#B3E486" />
    </linearGradient>
    <radialGradient id="plant-clover-sprite-halo" cx="46%" cy="34%" r="72%">
      <stop offset="0" stop-color="#FBFFF1" stop-opacity="0.95" />
      <stop offset="1" stop-color="#FBFFF1" stop-opacity="0" />
    </radialGradient>
  </defs>
  <rect x="10" y="10" width="236" height="236" rx="68" fill="url(#plant-clover-sprite-bg)" />
  <rect x="10" y="10" width="236" height="236" rx="68" fill="#ffffff" fill-opacity="0.10" />
  <circle cx="70" cy="54" r="28" fill="#ffffff" fill-opacity="0.26" />
  <circle cx="196" cy="58" r="18" fill="#ffffff" fill-opacity="0.16" />
  <circle cx="208" cy="190" r="22" fill="#47B982" fill-opacity="0.10" />
  <circle cx="46" cy="168" r="10" fill="#47B982" fill-opacity="0.14" />
  <path d="M32 188 C58 166 100 168 126 186 C150 202 188 206 224 188 L224 232 L32 232 Z" fill="#ffffff" fill-opacity="0.14" />
  <circle cx="128" cy="106" r="74" fill="url(#plant-clover-sprite-halo)" />
  <ellipse cx="128" cy="210" rx="58" ry="14" fill="#102030" fill-opacity="0.10" />
  
    <g>
      
      <circle cx="108" cy="94" r="24" fill="#7ABF6A" />
      <circle cx="148" cy="94" r="24" fill="#7ABF6A" />
      <circle cx="108" cy="134" r="24" fill="#7ABF6A" />
      <circle cx="148" cy="134" r="24" fill="#7ABF6A" />
      <circle cx="128" cy="114" r="34" fill="#F6FFE9" />
      <path d="M 126 142 C 126 156, 120 170, 112 178" fill="none" stroke="#47B982" stroke-width="7" stroke-linecap="round" />
      <path d="M 84 210 C 88 178, 104 156, 128 156 C 152 156, 168 178, 172 210 Z" fill="#A8DA7D" />
      
    <circle cx="100" cy="136" r="9" fill="#F7A5B2" fill-opacity="0.26" />
    <circle cx="156" cy="136" r="9" fill="#F7A5B2" fill-opacity="0.26" />
    
    <circle cx="110" cy="118" r="4.6" fill="#31495C" />
    <circle cx="146" cy="118" r="4.6" fill="#31495C" />
    <ellipse cx="128" cy="129" rx="3.6" ry="2.8" fill="#31495C" fill-opacity="0.52" />
    <path d="M 114 138 C 122 146, 134 146, 142 138" fill="none" stroke="#31495C" stroke-width="4" stroke-linecap="round" />
    </g>
</svg>
