<?xml version="1.0" encoding="UTF-8"?>
<svg width="256" height="256" viewBox="0 0 256 256" xmlns="http://www.w3.org/2000/svg" role="img" aria-labelledby="plant-lily-guardian-title">
  <title id="plant-lily-guardian-title">铃兰守护</title>
  
  <defs>
    <linearGradient id="plant-lily-guardian-bg" x1="24" y1="12" x2="222" y2="244" gradientUnits="userSpaceOnUse">
      <stop offset="0" stop-color="#F4F0FF" />
      <stop offset="1" stop-color="#D7CBFF" />
    </linearGradient>
    <radialGradient id="plant-lily-guardian-halo" cx="46%" cy="34%" r="72%">
      <stop offset="0" stop-color="#FBF9FF" stop-opacity="0.95" />
      <stop offset="1" stop-color="#FBF9FF" stop-opacity="0" />
    </radialGradient>
  </defs>
  <rect x="10" y="10" width="236" height="236" rx="68" fill="url(#plant-lily-guardian-bg)" />
  <rect x="10" y="10" width="236" height="236" rx="68" fill="#ffffff" fill-opacity="0.10" />
  <circle cx="70" cy="54" r="28" fill="#ffffff" fill-opacity="0.26" />
  <circle cx="196" cy="58" r="18" fill="#ffffff" fill-opacity="0.16" />
  <circle cx="208" cy="190" r="22" fill="#8BCB8F" fill-opacity="0.10" />
  <circle cx="46" cy="168" r="10" fill="#8BCB8F" fill-opacity="0.14" />
  <path d="M32 188 C58 166 100 168 126 186 C150 202 188 206 224 188 L224 232 L32 232 Z" fill="#ffffff" fill-opacity="0.14" />
  <circle cx="128" cy="106" r="74" fill="url(#plant-lily-guardian-halo)" />
  <ellipse cx="128" cy="210" rx="58" ry="14" fill="#102030" fill-opacity="0.10" />
  
    <g>
      
      <ellipse cx="171.3" cy="131" rx="14" ry="34" fill="#B79BE8" opacity="0.92" transform="rotate(120 171.3 131)" /><ellipse cx="128" cy="156" rx="14" ry="34" fill="#B79BE8" opacity="0.92" transform="rotate(180 128 156)" /><ellipse cx="84.7" cy="131" rx="14" ry="34" fill="#B79BE8" opacity="0.92" transform="rotate(240 84.7 131)" /><ellipse cx="84.7" cy="81" rx="14" ry="34" fill="#B79BE8" opacity="0.92" transform="rotate(300 84.7 81)" /><ellipse cx="128" cy="56" rx="14" ry="34" fill="#B79BE8" opacity="0.92" transform="rotate(360 128 56)" /><ellipse cx="171.3" cy="81" rx="14" ry="34" fill="#B79BE8" opacity="0.92" transform="rotate(420 171.3 81)" />
      <circle cx="128" cy="116" r="37" fill="#FFF7F2" />
      <path d="M 84 210 C 88 178, 104 156, 128 156 C 152 156, 168 178, 172 210 Z" fill="#E4DDFE" />
      <path d="M 98 182 C 106 164, 118 156, 128 168 C 138 156, 150 164, 158 182" fill="none" stroke="#8BCB8F" stroke-width="8" stroke-linecap="round" />
      
    <circle cx="100" cy="136" r="9" fill="#F7A5B2" fill-opacity="0.26" />
    <circle cx="156" cy="136" r="9" fill="#F7A5B2" fill-opacity="0.26" />
    
    <circle cx="110" cy="118" r="4.6" fill="#31495C" />
    <circle cx="146" cy="118" r="4.6" fill="#31495C" />
    <ellipse cx="128" cy="129" rx="3.6" ry="2.8" fill="#31495C" fill-opacity="0.52" />
    <path d="M 114 138 C 122 146, 134 146, 142 138" fill="none" stroke="#31495C" stroke-width="4" stroke-linecap="round" />
    </g>
</svg>
