<?xml version="1.0" encoding="UTF-8"?>
<svg width="256" height="256" viewBox="0 0 256 256" xmlns="http://www.w3.org/2000/svg" role="img" aria-labelledby="plant-mushroom-elf-title">
  <title id="plant-mushroom-elf-title">蘑菇茸茸</title>
  
  <defs>
    <linearGradient id="plant-mushroom-elf-bg" x1="24" y1="12" x2="222" y2="244" gradientUnits="userSpaceOnUse">
      <stop offset="0" stop-color="#FFF3E2" />
      <stop offset="1" stop-color="#FFCAA0" />
    </linearGradient>
    <radialGradient id="plant-mushroom-elf-halo" cx="46%" cy="34%" r="72%">
      <stop offset="0" stop-color="#FFF9F1" stop-opacity="0.95" />
      <stop offset="1" stop-color="#FFF9F1" stop-opacity="0" />
    </radialGradient>
  </defs>
  <rect x="10" y="10" width="236" height="236" rx="68" fill="url(#plant-mushroom-elf-bg)" />
  <rect x="10" y="10" width="236" height="236" rx="68" fill="#ffffff" fill-opacity="0.10" />
  <circle cx="70" cy="54" r="28" fill="#ffffff" fill-opacity="0.26" />
  <circle cx="196" cy="58" r="18" fill="#ffffff" fill-opacity="0.16" />
  <circle cx="208" cy="190" r="22" fill="#F2876E" fill-opacity="0.10" />
  <circle cx="46" cy="168" r="10" fill="#F2876E" fill-opacity="0.14" />
  <path d="M32 188 C58 166 100 168 126 186 C150 202 188 206 224 188 L224 232 L32 232 Z" fill="#ffffff" fill-opacity="0.14" />
  <circle cx="128" cy="106" r="74" fill="url(#plant-mushroom-elf-halo)" />
  <ellipse cx="128" cy="210" rx="58" ry="14" fill="#102030" fill-opacity="0.10" />
  
    <g>
      
      <path d="M 78 122 C 82 84, 102 62, 128 62 C 154 62, 174 84, 178 122 Z" fill="#E59C78" />
      <circle cx="102" cy="100" r="8" fill="#FFF3EA" fill-opacity="0.82" />
      <circle cx="154" cy="94" r="7" fill="#FFF3EA" fill-opacity="0.82" />
      <circle cx="128" cy="86" r="6" fill="#FFF3EA" fill-opacity="0.82" />
      <rect x="94" y="118" width="68" height="60" rx="26" fill="#FFF3EA" />
      <path d="M 84 210 C 88 182, 104 160, 128 160 C 152 160, 168 182, 172 210 Z" fill="#F4B58C" />
      
    <circle cx="100" cy="136" r="9" fill="#F7A5B2" fill-opacity="0.26" />
    <circle cx="156" cy="136" r="9" fill="#F7A5B2" fill-opacity="0.26" />
    
    <circle cx="110" cy="118" r="4.6" fill="#31495C" />
    <circle cx="146" cy="118" r="4.6" fill="#31495C" />
    <ellipse cx="128" cy="129" rx="3.6" ry="2.8" fill="#31495C" fill-opacity="0.52" />
    <path d="M 114 138 C 122 146, 134 146, 142 138" fill="none" stroke="#31495C" stroke-width="4" stroke-linecap="round" />
    </g>
</svg>
