<?xml version="1.0" encoding="UTF-8"?>
<svg width="256" height="256" viewBox="0 0 256 256" xmlns="http://www.w3.org/2000/svg" role="img" aria-labelledby="sky-sun-friend-title">
  <title id="sky-sun-friend-title">晴空暖暖</title>
  
  <defs>
    <linearGradient id="sky-sun-friend-bg" x1="24" y1="12" x2="222" y2="244" gradientUnits="userSpaceOnUse">
      <stop offset="0" stop-color="#FFF5C9" />
      <stop offset="1" stop-color="#FFD66C" />
    </linearGradient>
    <radialGradient id="sky-sun-friend-halo" cx="46%" cy="34%" r="72%">
      <stop offset="0" stop-color="#FFFBEA" stop-opacity="0.95" />
      <stop offset="1" stop-color="#FFFBEA" stop-opacity="0" />
    </radialGradient>
  </defs>
  <rect x="10" y="10" width="236" height="236" rx="68" fill="url(#sky-sun-friend-bg)" />
  <rect x="10" y="10" width="236" height="236" rx="68" fill="#ffffff" fill-opacity="0.10" />
  <circle cx="70" cy="54" r="28" fill="#ffffff" fill-opacity="0.26" />
  <circle cx="196" cy="58" r="18" fill="#ffffff" fill-opacity="0.16" />
  <circle cx="208" cy="190" r="22" fill="#FF9852" fill-opacity="0.10" />
  <circle cx="46" cy="168" r="10" fill="#FF9852" fill-opacity="0.14" />
  <path d="M32 188 C58 166 100 168 126 186 C150 202 188 206 224 188 L224 232 L32 232 Z" fill="#ffffff" fill-opacity="0.14" />
  <circle cx="128" cy="106" r="74" fill="url(#sky-sun-friend-halo)" />
  <ellipse cx="128" cy="210" rx="58" ry="14" fill="#102030" fill-opacity="0.10" />
  
    <g>
      
      <ellipse cx="182" cy="116" rx="8" ry="20" fill="#FF9852" opacity="0.9" transform="rotate(90 182 116)" /><ellipse cx="171.7" cy="147.7" rx="8" ry="20" fill="#FF9852" opacity="0.9" transform="rotate(126 171.7 147.7)" /><ellipse cx="144.7" cy="167.4" rx="8" ry="20" fill="#FF9852" opacity="0.9" transform="rotate(162 144.7 167.4)" /><ellipse cx="111.3" cy="167.4" rx="8" ry="20" fill="#FF9852" opacity="0.9" transform="rotate(198 111.3 167.4)" /><ellipse cx="84.3" cy="147.7" rx="8" ry="20" fill="#FF9852" opacity="0.9" transform="rotate(234 84.3 147.7)" /><ellipse cx="74" cy="116" rx="8" ry="20" fill="#FF9852" opacity="0.9" transform="rotate(270 74 116)" /><ellipse cx="84.3" cy="84.3" rx="8" ry="20" fill="#FF9852" opacity="0.9" transform="rotate(306 84.3 84.3)" /><ellipse cx="111.3" cy="64.6" rx="8" ry="20" fill="#FF9852" opacity="0.9" transform="rotate(342 111.3 64.6)" /><ellipse cx="144.7" cy="64.6" rx="8" ry="20" fill="#FF9852" opacity="0.9" transform="rotate(378 144.7 64.6)" /><ellipse cx="171.7" cy="84.3" rx="8" ry="20" fill="#FF9852" opacity="0.9" transform="rotate(414 171.7 84.3)" />
      <circle cx="128" cy="116" r="42" fill="#FFD15B" />
      
    <circle cx="100" cy="134" r="9" fill="#F7A5B2" fill-opacity="0.26" />
    <circle cx="156" cy="134" r="9" fill="#F7A5B2" fill-opacity="0.26" />
    
    <circle cx="110" cy="116" r="4.6" fill="#31495C" />
    <circle cx="146" cy="116" r="4.6" fill="#31495C" />
    <ellipse cx="128" cy="127" rx="3.6" ry="2.8" fill="#31495C" fill-opacity="0.52" />
    <path d="M 114 136 C 122 144, 134 144, 142 136" fill="none" stroke="#31495C" stroke-width="4" stroke-linecap="round" />
    </g>
</svg>
