<?xml version="1.0" encoding="UTF-8"?>
<svg width="256" height="256" viewBox="0 0 256 256" xmlns="http://www.w3.org/2000/svg" role="img" aria-labelledby="sky-raindrop-friend-title">
  <title id="sky-raindrop-friend-title">雨滴叮咚</title>
  
  <defs>
    <linearGradient id="sky-raindrop-friend-bg" x1="24" y1="12" x2="222" y2="244" gradientUnits="userSpaceOnUse">
      <stop offset="0" stop-color="#EEF8FF" />
      <stop offset="1" stop-color="#A8D8FF" />
    </linearGradient>
    <radialGradient id="sky-raindrop-friend-halo" cx="46%" cy="34%" r="72%">
      <stop offset="0" stop-color="#FBFEFF" stop-opacity="0.95" />
      <stop offset="1" stop-color="#FBFEFF" stop-opacity="0" />
    </radialGradient>
  </defs>
  <rect x="10" y="10" width="236" height="236" rx="68" fill="url(#sky-raindrop-friend-bg)" />
  <rect x="10" y="10" width="236" height="236" rx="68" fill="#ffffff" fill-opacity="0.10" />
  <circle cx="70" cy="54" r="28" fill="#ffffff" fill-opacity="0.26" />
  <circle cx="196" cy="58" r="18" fill="#ffffff" fill-opacity="0.16" />
  <circle cx="208" cy="190" r="22" fill="#5A93E2" fill-opacity="0.10" />
  <circle cx="46" cy="168" r="10" fill="#5A93E2" fill-opacity="0.14" />
  <path d="M32 188 C58 166 100 168 126 186 C150 202 188 206 224 188 L224 232 L32 232 Z" fill="#ffffff" fill-opacity="0.14" />
  <circle cx="128" cy="106" r="74" fill="url(#sky-raindrop-friend-halo)" />
  <ellipse cx="128" cy="210" rx="58" ry="14" fill="#102030" fill-opacity="0.10" />
  
    <g>
      
      <path d="M 128 64 C 156 100, 176 126, 176 152 C 176 182, 154 202, 128 202 C 102 202, 80 182, 80 152 C 80 126, 100 100, 128 64 Z" fill="#72B7F2" />
      <path d="M 106 176 C 114 184, 128 188, 144 180" fill="none" stroke="#ffffff" stroke-width="7" stroke-linecap="round" opacity="0.38" />
      
    <circle cx="100" cy="152" r="9" fill="#F7A5B2" fill-opacity="0.26" />
    <circle cx="156" cy="152" r="9" fill="#F7A5B2" fill-opacity="0.26" />
    
    <circle cx="110" cy="134" r="4.6" fill="#31495C" />
    <circle cx="146" cy="134" r="4.6" fill="#31495C" />
    <ellipse cx="128" cy="145" rx="3.6" ry="2.8" fill="#31495C" fill-opacity="0.52" />
    <path d="M 114 154 C 122 162, 134 162, 142 154" fill="none" stroke="#31495C" stroke-width="4" stroke-linecap="round" />
    </g>
</svg>
