<?xml version="1.0" encoding="UTF-8"?>
<svg width="256" height="256" viewBox="0 0 256 256" xmlns="http://www.w3.org/2000/svg" role="img" aria-labelledby="animal-mint-bunny-title">
  <title id="animal-mint-bunny-title">薄荷小兔</title>
  
  <defs>
    <linearGradient id="animal-mint-bunny-bg" x1="24" y1="12" x2="222" y2="244" gradientUnits="userSpaceOnUse">
      <stop offset="0" stop-color="#F0FFE4" />
      <stop offset="1" stop-color="#A8E6B8" />
    </linearGradient>
    <radialGradient id="animal-mint-bunny-halo" cx="46%" cy="34%" r="72%">
      <stop offset="0" stop-color="#FCFFF4" stop-opacity="0.95" />
      <stop offset="1" stop-color="#FCFFF4" stop-opacity="0" />
    </radialGradient>
  </defs>
  <rect x="10" y="10" width="236" height="236" rx="68" fill="url(#animal-mint-bunny-bg)" />
  <rect x="10" y="10" width="236" height="236" rx="68" fill="#ffffff" fill-opacity="0.10" />
  <circle cx="70" cy="54" r="28" fill="#ffffff" fill-opacity="0.26" />
  <circle cx="196" cy="58" r="18" fill="#ffffff" fill-opacity="0.16" />
  <circle cx="208" cy="190" r="22" fill="#FF9CB8" fill-opacity="0.10" />
  <circle cx="46" cy="168" r="10" fill="#FF9CB8" fill-opacity="0.14" />
  <path d="M32 188 C58 166 100 168 126 186 C150 202 188 206 224 188 L224 232 L32 232 Z" fill="#ffffff" fill-opacity="0.14" />
  <circle cx="128" cy="106" r="74" fill="url(#animal-mint-bunny-halo)" />
  <ellipse cx="128" cy="210" rx="58" ry="14" fill="#102030" fill-opacity="0.10" />
  
    <g>
      
      
    <path d="M 76 214 C 78 174, 98 148, 128 148 C 158 148, 178 174, 180 214 Z" fill="#9ADEB6" />
    <path d="M 92 160 C 110 150, 146 150, 164 160 L 158 180 C 144 174, 112 174, 98 180 Z" fill="#FF9CB8" fill-opacity="0.95" />
      
      <ellipse cx="97" cy="60" rx="15" ry="38" fill="#77C697" transform="rotate(-10 97 60)" />
      <ellipse cx="97" cy="64" rx="7" ry="24" fill="#FFF3F6" transform="rotate(-10 97 64)" />
      <ellipse cx="159" cy="60" rx="15" ry="38" fill="#77C697" transform="rotate(10 159 60)" />
      <ellipse cx="159" cy="64" rx="7" ry="24" fill="#FFF3F6" transform="rotate(10 159 64)" />
      <circle cx="128" cy="112" r="48" fill="#77C697" />
      <ellipse cx="128" cy="134" rx="24" ry="18" fill="#FFF3F6" />
      
    <circle cx="100" cy="130" r="9" fill="#F7A5B2" fill-opacity="0.26" />
    <circle cx="156" cy="130" r="9" fill="#F7A5B2" fill-opacity="0.26" />
    
    <circle cx="110" cy="112" r="4.6" fill="#31495C" />
    <circle cx="146" cy="112" r="4.6" fill="#31495C" />
    <ellipse cx="128" cy="123" rx="3.6" ry="2.8" fill="#31495C" fill-opacity="0.52" />
    <path d="M 114 132 C 122 140, 134 140, 142 132" fill="none" stroke="#31495C" stroke-width="4" stroke-linecap="round" />
      
    </g>
</svg>
