<?xml version="1.0" encoding="UTF-8"?>
<svg width="256" height="256" viewBox="0 0 256 256" xmlns="http://www.w3.org/2000/svg" role="img" aria-labelledby="animal-amber-tiger-title">
  <title id="animal-amber-tiger-title">琥珀小虎</title>
  
  <defs>
    <linearGradient id="animal-amber-tiger-bg" x1="24" y1="12" x2="222" y2="244" gradientUnits="userSpaceOnUse">
      <stop offset="0" stop-color="#FFF0D8" />
      <stop offset="1" stop-color="#FFBA7D" />
    </linearGradient>
    <radialGradient id="animal-amber-tiger-halo" cx="46%" cy="34%" r="72%">
      <stop offset="0" stop-color="#FFF8EA" stop-opacity="0.95" />
      <stop offset="1" stop-color="#FFF8EA" stop-opacity="0" />
    </radialGradient>
  </defs>
  <rect x="10" y="10" width="236" height="236" rx="68" fill="url(#animal-amber-tiger-bg)" />
  <rect x="10" y="10" width="236" height="236" rx="68" fill="#ffffff" fill-opacity="0.10" />
  <circle cx="70" cy="54" r="28" fill="#ffffff" fill-opacity="0.26" />
  <circle cx="196" cy="58" r="18" fill="#ffffff" fill-opacity="0.16" />
  <circle cx="208" cy="190" r="22" fill="#FF6D4E" fill-opacity="0.10" />
  <circle cx="46" cy="168" r="10" fill="#FF6D4E" fill-opacity="0.14" />
  <path d="M32 188 C58 166 100 168 126 186 C150 202 188 206 224 188 L224 232 L32 232 Z" fill="#ffffff" fill-opacity="0.14" />
  <circle cx="128" cy="106" r="74" fill="url(#animal-amber-tiger-halo)" />
  <ellipse cx="128" cy="210" rx="58" ry="14" fill="#102030" fill-opacity="0.10" />
  
    <g>
      
      
    <path d="M 76 214 C 78 174, 98 148, 128 148 C 158 148, 178 174, 180 214 Z" fill="#E89C69" />
    <path d="M 92 160 C 110 150, 146 150, 164 160 L 158 180 C 144 174, 112 174, 98 180 Z" fill="#FF6D4E" fill-opacity="0.95" />
      
      <path d="M 82 94 L 96 54 L 118 86 Z" fill="#DA8E4E" />
      <path d="M 97 83 L 101 65 L 111 82 Z" fill="#FFF1E2" />
      <path d="M 174 94 L 160 54 L 138 86 Z" fill="#DA8E4E" />
      <path d="M 159 83 L 155 65 L 145 82 Z" fill="#FFF1E2" />
      <circle cx="128" cy="112" r="48" fill="#DA8E4E" />
      
      <path d="M 128 80 L 121 94 L 128 92 L 135 94 Z" fill="#FF6D4E" />
      <path d="M 106 88 L 100 98 L 110 96 Z" fill="#FF6D4E" fill-opacity="0.82" />
      <path d="M 150 88 L 156 98 L 146 96 Z" fill="#FF6D4E" fill-opacity="0.82" />
      <ellipse cx="128" cy="134" rx="26" ry="19" fill="#FFF1E2" />
      
    <circle cx="100" cy="130" r="9" fill="#F7A5B2" fill-opacity="0.26" />
    <circle cx="156" cy="130" r="9" fill="#F7A5B2" fill-opacity="0.26" />
    
    <circle cx="110" cy="112" r="4.6" fill="#31495C" />
    <circle cx="146" cy="112" r="4.6" fill="#31495C" />
    <ellipse cx="128" cy="123" rx="3.6" ry="2.8" fill="#31495C" fill-opacity="0.52" />
    <path d="M 114 132 C 122 140, 134 140, 142 132" fill="none" stroke="#31495C" stroke-width="4" stroke-linecap="round" />
      
    </g>
</svg>
