<?xml version="1.0" encoding="UTF-8"?>
<svg width="256" height="256" viewBox="0 0 256 256" xmlns="http://www.w3.org/2000/svg" role="img" aria-labelledby="animal-ocean-whale-title">
  <title id="animal-ocean-whale-title">泡泡小鲸</title>
  
  <defs>
    <linearGradient id="animal-ocean-whale-bg" x1="24" y1="12" x2="222" y2="244" gradientUnits="userSpaceOnUse">
      <stop offset="0" stop-color="#E7FEFF" />
      <stop offset="1" stop-color="#8DE0E8" />
    </linearGradient>
    <radialGradient id="animal-ocean-whale-halo" cx="46%" cy="34%" r="72%">
      <stop offset="0" stop-color="#F8FFFF" stop-opacity="0.95" />
      <stop offset="1" stop-color="#F8FFFF" stop-opacity="0" />
    </radialGradient>
  </defs>
  <rect x="10" y="10" width="236" height="236" rx="68" fill="url(#animal-ocean-whale-bg)" />
  <rect x="10" y="10" width="236" height="236" rx="68" fill="#ffffff" fill-opacity="0.10" />
  <circle cx="70" cy="54" r="28" fill="#ffffff" fill-opacity="0.26" />
  <circle cx="196" cy="58" r="18" fill="#ffffff" fill-opacity="0.16" />
  <circle cx="208" cy="190" r="22" fill="#4D98D8" fill-opacity="0.10" />
  <circle cx="46" cy="168" r="10" fill="#4D98D8" fill-opacity="0.14" />
  <path d="M32 188 C58 166 100 168 126 186 C150 202 188 206 224 188 L224 232 L32 232 Z" fill="#ffffff" fill-opacity="0.14" />
  <circle cx="128" cy="106" r="74" fill="url(#animal-ocean-whale-halo)" />
  <ellipse cx="128" cy="210" rx="58" ry="14" fill="#102030" fill-opacity="0.10" />
  
    <g>
      
      <path d="M 124 50 C 128 28, 138 24, 142 48" fill="none" stroke="#4D98D8" stroke-width="7" stroke-linecap="round" />
      <circle cx="118" cy="42" r="5" fill="#4D98D8" fill-opacity="0.65" />
      <circle cx="148" cy="38" r="4" fill="#4D98D8" fill-opacity="0.52" />
      
      <ellipse cx="128" cy="178" rx="62" ry="34" fill="#7ACCD3" />
      <path d="M 78 176 C 64 166, 60 160, 62 148 C 76 150, 88 160, 90 172 Z" fill="#7ACCD3" />
      <path d="M 178 176 C 192 166, 196 160, 194 148 C 180 150, 168 160, 166 172 Z" fill="#7ACCD3" />
      <path d="M 112 192 C 120 178, 136 178, 144 192" fill="none" stroke="#4D98D8" stroke-width="7" stroke-linecap="round" />
      
      <circle cx="128" cy="112" r="48" fill="#5CB8C4" />
      <ellipse cx="128" cy="132" rx="30" ry="18" fill="#ECFCFF" />
      
    <circle cx="100" cy="130" r="9" fill="#F7A5B2" fill-opacity="0.26" />
    <circle cx="156" cy="130" r="9" fill="#F7A5B2" fill-opacity="0.26" />
    
    <circle cx="110" cy="112" r="4.6" fill="#31495C" />
    <circle cx="146" cy="112" r="4.6" fill="#31495C" />
    <ellipse cx="128" cy="123" rx="3.6" ry="2.8" fill="#31495C" fill-opacity="0.52" />
    <path d="M 114 132 C 122 140, 134 140, 142 132" fill="none" stroke="#31495C" stroke-width="4" stroke-linecap="round" />
      
    </g>
</svg>
