<?xml version="1.0" encoding="UTF-8"?>
<svg width="256" height="256" viewBox="0 0 256 256" xmlns="http://www.w3.org/2000/svg" role="img" aria-labelledby="animal-moss-turtle-title">
  <title id="animal-moss-turtle-title">苔苔小龟</title>
  
  <defs>
    <linearGradient id="animal-moss-turtle-bg" x1="24" y1="12" x2="222" y2="244" gradientUnits="userSpaceOnUse">
      <stop offset="0" stop-color="#F1FDDD" />
      <stop offset="1" stop-color="#B8E08A" />
    </linearGradient>
    <radialGradient id="animal-moss-turtle-halo" cx="46%" cy="34%" r="72%">
      <stop offset="0" stop-color="#FBFFF1" stop-opacity="0.95" />
      <stop offset="1" stop-color="#FBFFF1" stop-opacity="0" />
    </radialGradient>
  </defs>
  <rect x="10" y="10" width="236" height="236" rx="68" fill="url(#animal-moss-turtle-bg)" />
  <rect x="10" y="10" width="236" height="236" rx="68" fill="#ffffff" fill-opacity="0.10" />
  <circle cx="70" cy="54" r="28" fill="#ffffff" fill-opacity="0.26" />
  <circle cx="196" cy="58" r="18" fill="#ffffff" fill-opacity="0.16" />
  <circle cx="208" cy="190" r="22" fill="#F2A556" fill-opacity="0.10" />
  <circle cx="46" cy="168" r="10" fill="#F2A556" fill-opacity="0.14" />
  <path d="M32 188 C58 166 100 168 126 186 C150 202 188 206 224 188 L224 232 L32 232 Z" fill="#ffffff" fill-opacity="0.14" />
  <circle cx="128" cy="106" r="74" fill="url(#animal-moss-turtle-halo)" />
  <ellipse cx="128" cy="210" rx="58" ry="14" fill="#102030" fill-opacity="0.10" />
  
    <g>
      
      
      <ellipse cx="128" cy="178" rx="56" ry="36" fill="#9DCA7B" />
      <ellipse cx="128" cy="178" rx="40" ry="26" fill="#F2A556" fill-opacity="0.28" />
      <circle cx="96" cy="178" r="8" fill="#FFF8E4" fill-opacity="0.55" />
      <circle cx="128" cy="164" r="8" fill="#FFF8E4" fill-opacity="0.55" />
      <circle cx="160" cy="178" r="8" fill="#FFF8E4" fill-opacity="0.55" />
      <circle cx="108" cy="196" r="8" fill="#FFF8E4" fill-opacity="0.55" />
      <circle cx="148" cy="196" r="8" fill="#FFF8E4" fill-opacity="0.55" />
      
      <circle cx="128" cy="112" r="48" fill="#78B965" />
      <ellipse cx="128" cy="134" rx="24" ry="18" fill="#FFF8E4" />
      
    <circle cx="100" cy="130" r="9" fill="#F7A5B2" fill-opacity="0.26" />
    <circle cx="156" cy="130" r="9" fill="#F7A5B2" fill-opacity="0.26" />
    
    <circle cx="110" cy="112" r="4.6" fill="#31495C" />
    <circle cx="146" cy="112" r="4.6" fill="#31495C" />
    <ellipse cx="128" cy="123" rx="3.6" ry="2.8" fill="#31495C" fill-opacity="0.52" />
    <path d="M 114 132 C 122 140, 134 140, 142 132" fill="none" stroke="#31495C" stroke-width="4" stroke-linecap="round" />
      
    </g>
</svg>
