<?xml version="1.0" encoding="UTF-8"?>
<svg width="256" height="256" viewBox="0 0 256 256" xmlns="http://www.w3.org/2000/svg" role="img" aria-labelledby="animal-snow-seal-title">
  <title id="animal-snow-seal-title">雪团海豹</title>
  
  <defs>
    <linearGradient id="animal-snow-seal-bg" x1="24" y1="12" x2="222" y2="244" gradientUnits="userSpaceOnUse">
      <stop offset="0" stop-color="#F5FAFF" />
      <stop offset="1" stop-color="#C6E2FF" />
    </linearGradient>
    <radialGradient id="animal-snow-seal-halo" cx="46%" cy="34%" r="72%">
      <stop offset="0" stop-color="#FCFEFF" stop-opacity="0.95" />
      <stop offset="1" stop-color="#FCFEFF" stop-opacity="0" />
    </radialGradient>
  </defs>
  <rect x="10" y="10" width="236" height="236" rx="68" fill="url(#animal-snow-seal-bg)" />
  <rect x="10" y="10" width="236" height="236" rx="68" fill="#ffffff" fill-opacity="0.10" />
  <circle cx="70" cy="54" r="28" fill="#ffffff" fill-opacity="0.26" />
  <circle cx="196" cy="58" r="18" fill="#ffffff" fill-opacity="0.16" />
  <circle cx="208" cy="190" r="22" fill="#8194F0" fill-opacity="0.10" />
  <circle cx="46" cy="168" r="10" fill="#8194F0" fill-opacity="0.14" />
  <path d="M32 188 C58 166 100 168 126 186 C150 202 188 206 224 188 L224 232 L32 232 Z" fill="#ffffff" fill-opacity="0.14" />
  <circle cx="128" cy="106" r="74" fill="url(#animal-snow-seal-halo)" />
  <ellipse cx="128" cy="210" rx="58" ry="14" fill="#102030" fill-opacity="0.10" />
  
    <g>
      
      
      <path d="M 84 214 C 86 170, 102 146, 128 146 C 154 146, 170 170, 172 214 Z" fill="#B6CCE9" />
      <path d="M 94 192 C 80 194, 70 188, 68 176 C 80 176, 90 182, 94 192 Z" fill="#B6CCE9" />
      <path d="M 162 192 C 176 194, 186 188, 188 176 C 176 176, 166 182, 162 192 Z" fill="#B6CCE9" />
      
      <circle cx="96" cy="78" r="10" fill="#9EB7D5" />
      <circle cx="160" cy="78" r="10" fill="#9EB7D5" />
      <circle cx="128" cy="112" r="48" fill="#9EB7D5" />
      <ellipse cx="128" cy="136" rx="28" ry="18" fill="#FFFFFF" />
      
    <circle cx="100" cy="130" r="9" fill="#F7A5B2" fill-opacity="0.26" />
    <circle cx="156" cy="130" r="9" fill="#F7A5B2" fill-opacity="0.26" />
    
    <circle cx="110" cy="112" r="4.6" fill="#31495C" />
    <circle cx="146" cy="112" r="4.6" fill="#31495C" />
    <ellipse cx="128" cy="123" rx="3.6" ry="2.8" fill="#31495C" fill-opacity="0.52" />
    <path d="M 114 132 C 122 140, 134 140, 142 132" fill="none" stroke="#31495C" stroke-width="4" stroke-linecap="round" />
      
      <path d="M 100 138 H 82" stroke="#31495C" stroke-width="3" stroke-linecap="round" opacity="0.52" />
      <path d="M 100 144 H 84" stroke="#31495C" stroke-width="3" stroke-linecap="round" opacity="0.52" />
      <path d="M 156 138 H 174" stroke="#31495C" stroke-width="3" stroke-linecap="round" opacity="0.52" />
      <path d="M 156 144 H 172" stroke="#31495C" stroke-width="3" stroke-linecap="round" opacity="0.52" />
    </g>
</svg>
